<?xml version="1.0" encoding="utf-8"?>
<!-- Generator: Adobe Illustrator 25.0.1, SVG Export Plug-In . SVG Version: 6.00 Build 0)  -->
<svg version="1.1" id="Layer_1" xmlns="http://www.w3.org/2000/svg" xmlns:xlink="http://www.w3.org/1999/xlink" x="0px" y="0px"
	 viewBox="0 0 432.1 445.4" style="enable-background:new 0 0 432.1 445.4;" xml:space="preserve">
<style type="text/css">
	.st0{fill:#336791;}
	.st1{fill:#FFFFFF;}
	.st2{fill:none;stroke:#FFFFFF;stroke-width:3;stroke-linecap:round;stroke-linejoin:round;}
</style>
<g id="orginal">
</g>
<g id="Layer_x0020_3">
	<g>
		<path d="M323.2,324.2c2.8-23.6,2-27.1,19.6-23.2l4.5,0.4c13.5,0.6,31.2-2.2,41.6-7c22.4-10.4,35.6-27.7,13.6-23.1
			c-50.3,10.4-53.8-6.7-53.8-6.7c53.1-78.8,75.3-178.8,56.1-203.3C352.5-5.5,262,26,260.5,26.9L260,27c-9.9-2.1-21.1-3.3-33.6-3.5
			c-22.8-0.4-40,6-53.1,15.9c0,0-161.4-66.5-153.9,83.6c1.6,31.9,45.8,241.7,98.5,178.3c19.3-23.2,37.9-42.7,37.9-42.7
			c9.2,6.1,20.3,9.3,31.9,8.1l0.9-0.8c-0.3,2.9-0.2,5.7,0.4,9c-13.6,15.2-9.6,17.8-36.7,23.4c-27.5,5.7-11.3,15.7-0.8,18.4
			c12.8,3.2,42.3,7.7,62.3-20.2l-0.8,3.2c5.3,4.3,5,30.6,5.7,49.5c0.8,18.8,2,36.4,5.9,46.8c3.8,10.4,8.4,37,44,29.4
			C298.3,418.9,321.1,409.8,323.2,324.2"/>
		<path d="M256.9,445.3c-11.1,0-23.2-2.9-33.2-12.4c-9.7-9.1-13.5-20.8-15.8-27.8c-0.4-1.1-0.7-2.1-0.9-2.8
			c-4.6-12.3-6.1-29.9-7-52.5c-0.1-3.3-0.2-6.9-0.3-10.6c-0.1-2.2-0.1-4.9-0.2-7.6c-15.3,6.7-33.3,7.9-52.5,3.1
			c-5.3-1.3-10.7-3.6-15-6.3c-3.4-2.2-6-4.5-8-6.8c-15.3,12.7-29.8,10.9-37.8,8.2c-14.3-4.8-27-18-38.9-40.5
			c-8.4-15.9-16.5-36.6-24.1-61.4c-13.2-43.3-21.6-89-22.4-104c-2.4-47.3,10.4-81.1,38-100.6c22.8-16.1,53.9-21,92.5-14.7
			c16.4,2.7,30.7,6.9,39.5,9.9c16-9.5,34.7-14.1,55.9-13.8c11.3,0.2,22.1,1.2,32.1,2.9c10.8-3.3,31.4-8,54.9-7.7
			c44.1,0.5,80.6,17.7,105.7,49.7c9.5,12.1,17.6,38.8,2.4,97.5c-9.4,36.3-25.7,74.8-45.7,108.6c5.3-0.2,12.6-0.9,22.4-2.9
			c5.6-1.2,10.4-1.4,14.5-0.8c8.8,1.3,15.6,6.8,18.2,14.7c7.6,22.9-24.6,39.9-34.6,44.6c-12.7,5.9-33.4,9.5-50.3,8.7l-0.8-0.1
			l-3-0.3c-0.1,0.8-0.2,1.5-0.3,2.3c-0.1,1.1-0.3,2.3-0.4,3.5c-1.1,43.6-7.4,71.3-20.3,89.6c-13.6,19.4-32.5,24.9-49.1,28.4
			C267.8,444.6,262.5,445.3,256.9,445.3z M224.6,285.1c10.7,8.5,11.6,24.1,12.4,53.2c0.1,3.5,0.2,6.9,0.3,10.1
			c0.4,9.5,1.3,31.8,4.7,41c0.5,1.4,1,2.7,1.4,4.2c3.9,11.9,5.5,16.8,21.2,13.4c13.8-3,20.9-5.6,26.4-13.3
			c8.1-11.6,12.7-35.1,13.5-69.9l18.7,0.5l-18.6-2.2c0.2-1.5,0.3-2.9,0.5-4.3c1.6-13.9,2.9-24.9,12.8-32.1
			c6.3-4.5,13.3-5.1,19.5-4.5c-5.1-5.2-6.7-10.4-7.1-12.8l-1.6-7.7l4.4-6.5c23.2-34.4,42.3-76.6,52.5-116
			c11.4-44.1,6.4-62.8,4.4-65.4C348.5,19.7,276.2,41.4,268.2,44l-1.4,0.8l-7,1.3l-3.6-0.7c-9.1-1.9-19.2-2.9-30.1-3.1
			c-16.8-0.3-30.4,3.7-41.5,12.1l-8.5,6.5l-9.9-4.1c-19.4-7.9-76.2-23.8-105.9-2.8c-16.4,11.6-23.9,34.5-22.2,68.2
			c0.6,11.6,8.5,55.3,21.5,97.3c17.9,57.7,33.7,73.7,38.2,75c0.6-0.2,2.6-1.3,5.7-5.1c19.4-23.4,37.9-42.9,38.7-43.7l10.8-11.4
			l13.1,8.7c4.5,3,9.4,4.7,14.5,5.2l31-26.5l-4.5,46.1c-0.1,0.9-0.1,2.1,0.2,4.3l1.4,8.7l-5.9,6.6c-0.1,0.1-0.1,0.1-0.2,0.2
			l14.5,6.7L224.6,285.1z"/>
	</g>
	<g>
		<path class="st0" d="M402.4,271.2c-50.3,10.4-53.8-6.7-53.8-6.7c53.1-78.8,75.3-178.8,56.2-203.3C352.5-5.5,262,26,260.5,26.9
			L260,27c-9.9-2.1-21.1-3.3-33.6-3.5c-22.8-0.4-40,6-53.1,15.9c0,0-161.4-66.5-153.9,83.6c1.6,31.9,45.8,241.7,98.5,178.3
			c19.3-23.2,37.9-42.7,37.9-42.7c9.2,6.1,20.3,9.3,31.9,8.1l0.9-0.8c-0.3,2.9-0.2,5.7,0.4,9c-13.6,15.2-9.6,17.8-36.7,23.4
			c-27.5,5.7-11.3,15.7-0.8,18.4c12.8,3.2,42.3,7.7,62.3-20.2l-0.8,3.2c5.3,4.3,9.1,27.7,8.4,49c-0.6,21.3-1,35.9,3.1,47.3
			c4.2,11.4,8.4,37,44,29.4c29.8-6.4,45.3-22.9,47.4-50.6c1.5-19.6,5-16.7,5.2-34.3l2.8-8.3c3.2-26.6,0.5-35.2,18.9-31.2l4.5,0.4
			c13.5,0.6,31.2-2.2,41.6-7C411.2,284,424.4,266.7,402.4,271.2L402.4,271.2z"/>
	</g>
	<g>
		<path class="st1" d="M258.7,433.8c-30,0-39.5-23.8-43.4-33.5c-5.7-14.2-6.9-67.5-5.6-114c0.1-3.4,3-6.1,6.4-6.1
			c3.4,0.1,6.2,3,6.1,6.4c-1.4,51.8,0.6,98.6,4.7,109c6.4,16.1,16.2,30.2,43.8,24.3c26.6-5.7,36.1-15.3,40.5-41
			c3.4-19.7,10.1-75.6,10.9-86.7c0.3-3.4,3.3-6,6.7-5.7c3.4,0.3,6,3.2,5.7,6.7c-0.9,11.5-7.6,67.4-11.1,87.9
			c-5.3,30.5-18.9,44.4-50.2,51.1C267.9,433.3,263.1,433.8,258.7,433.8z"/>
	</g>
	<g>
		<path class="st1" d="M97.5,318.8c-2.9,0-5.5-0.5-7.8-1.3c-19.5-6.5-38-38.1-55-93.8c-12.9-42.4-21.1-86.6-21.8-101
			c-2.1-42.7,8.9-73,32.8-89.9C65.7,18.6,93.7,14.3,129,20c25.8,4.1,45.6,12.2,46.4,12.5c3.2,1.3,4.7,4.9,3.4,8.1
			c-1.3,3.2-4.9,4.7-8.1,3.4c-0.9-0.4-76.4-30.5-117.9-1.1c-20.2,14.3-29.4,40.9-27.5,79.1c0.6,12.1,8.2,55.1,21.3,98
			c15.1,49.5,32.2,80.7,47,85.6c2.3,0.8,9.2,3.1,19.1-8.9c19.2-23.1,36.8-41.5,37-41.7c2.4-2.5,6.3-2.6,8.8-0.2
			c2.5,2.4,2.6,6.3,0.2,8.8c-0.2,0.2-17.5,18.3-36.4,41C113.3,315.6,104.6,318.8,97.5,318.8z"/>
	</g>
	<g>
		<path class="st1" d="M348.3,270.2c-1.2,0-2.4-0.3-3.5-1.1c-2.9-1.9-3.6-5.8-1.7-8.7c53.6-79.5,72.5-175.5,56.4-196
			c-20.2-25.8-48.8-39.3-84.8-40.1c-26.7-0.6-48,6.2-51.6,7.4c-0.3,0.1-0.6,0.3-0.9,0.4c-3.8,1.2-6.7-0.9-7.8-3.3
			c-1.3-2.9-0.2-6.3,2.5-7.9c2.3-1.4,26.9-9.4,56.2-9.1c40.3,0.4,73.5,16,96.2,44.9c5.6,7.2,8.3,18.9,8.1,35
			c-0.2,14.6-3,32.5-8,51.7c-10.9,42-31.3,87.2-56,124C352.2,269.2,350.3,270.2,348.3,270.2z"/>
	</g>
	<g>
		<path class="st1" d="M351,307c-9.3,0-17.6-1.3-22.6-4.3c-5.2-3.1-6.2-7.4-6.4-9.7c-1.4-23.9,11.4-28.6,18.5-30.7
			c-0.9-1.3-2.1-2.8-3.3-4.3c-4-5-9.5-11.8-13.7-22.1c-0.6-1.6-2.7-5.3-5.1-9.5c-13-23.3-40-71.7-22.5-96.6
			c8-11.5,23.8-16.1,47.1-13.7C340,107,332.3,89.9,318,73c-16.6-19.6-46-43.2-92-43.9c-23.3-0.4-42.4,6.8-56.8,21.2
			c-32.2,32.5-31.1,91.5-31.1,92.1c0.1,3.4-2.6,6.3-6.1,6.4c-3.4,0.1-6.3-2.6-6.4-6.1c-0.1-2.6-1.3-64.9,34.6-101.2
			c16.8-17,39-25.4,65.9-25c50.1,0.8,82.3,26.3,100.5,47.5c19.9,23.1,29.6,48.7,30.4,57.2c0.6,6.8-4.6,8.1-5.2,8.3l-2.2,0.1
			c-28.4-4.6-39.3,1.5-43.5,7.4c-13,18.5,12.4,64,23.2,83.4c2.8,5,4.8,8.6,5.7,10.8c3.5,8.6,8.2,14.4,11.9,19
			c3.3,4.1,6.2,7.7,7.2,12c0.5,0.9,7.5,10.3,46.5,2.2c10.3-2.1,16.4-0.3,18.3,5.5c3.7,11.2-16.7,24.1-28,29.4
			C381,304.1,365,307,351,307z M334.5,291.8c1.5,1.2,8,3.2,20.6,2.7c11.5-0.5,23.5-3,30.7-6.4c8.4-3.9,14.3-8.2,17.7-11.5
			c-0.1,0-0.2,0-0.3,0.1c-25.6,5.3-43.7,4.6-53.9-2.2c-0.6-0.4-1.2-0.8-1.7-1.3c-0.9,0.3-1.7,0.5-2.6,0.8
			C339.3,275.7,333.8,277.2,334.5,291.8z"/>
	</g>
	<g>
		<path class="st1" d="M169.4,324.7c-6.3,0-13-0.9-19.9-2.6c-2-0.5-19.3-5.2-19.1-16.2c0.2-10.2,14.7-13.1,20.2-14.3
			c19.2-3.9,20.4-5.5,26.4-13.1c1.8-2.2,4-5,7-8.4c10-11.2,19.4-7.3,23.4-5.6c6.3,2.6,11.6,8.9,13.7,16.4c2,6.8,1,13.4-2.6,18.5
			C206.6,316.1,189.6,324.7,169.4,324.7z M144.3,306.5c1.8,1.2,4.9,2.7,8.3,3.6c16.6,4.2,39.8,4.4,55.7-17.8c1.9-2.6,1.3-6,0.8-7.8
			c-1.1-3.8-3.8-7.2-6.5-8.4c-3.4-1.4-5.2-2.2-9.3,2.4c0,0,0,0,0,0c-2.7,3.1-4.7,5.6-6.5,7.8c-7.6,9.7-11.1,12.9-33.7,17.6
			C148.5,304.8,145.8,305.8,144.3,306.5z M188.6,274.3L188.6,274.3L188.6,274.3z"/>
	</g>
	<g>
		<path class="st1" d="M187.7,280.3c-3,0-5.7-2.2-6.2-5.3c-0.1-0.8-0.2-1.7-0.3-2.5c-14.7-0.4-28.8-6.7-39.5-17.9
			c-13.7-14.3-19.9-34.1-17.1-54.3c3-21.8,1.9-41,1.3-51.3c-0.2-2.9-0.3-5-0.3-6.4c0-1.9,0-6.9,16.5-15.3c5.8-2.9,17.4-8,30-9.4
			c21.1-2.2,35.1,7.2,39.2,26.5c11.1,51.5,0.9,74.4-6.6,91c-1.4,3.1-2.7,6-3.7,8.8l-0.9,2.5c-3.9,10.5-7.3,19.6-6.3,26.3
			c0.5,3.4-1.8,6.6-5.2,7.1C188.3,280.3,188,280.3,187.7,280.3z M138.2,144.4c0,1,0.1,2.4,0.2,3.9c0.6,10.8,1.8,30.8-1.4,53.8
			c-2.3,16.4,2.7,32.4,13.8,44c8.7,9.1,20.1,14.1,31.8,14.1c1.3-5.5,3.5-11.4,5.9-17.6l0.9-2.5c1.2-3.2,2.6-6.3,4.1-9.6
			c7.2-15.9,16.1-35.7,5.8-83.3c-2-9.2-6.8-14.5-14.6-16.3C167.5,126.9,143.4,139.8,138.2,144.4z M137.5,145.1L137.5,145.1
			L137.5,145.1z"/>
	</g>
	<g>
		<path class="st1" d="M172.5,141.7c-0.3,2,3.7,7.5,9,8.2c5.2,0.7,9.7-3.5,10-5.6c0.3-2-3.7-4.3-9-5
			C177.3,138.6,172.8,139.7,172.5,141.7L172.5,141.7z"/>
		<path class="st1" d="M182.6,152.1c-0.5,0-0.9,0-1.4-0.1c-3.3-0.5-6.6-2.5-8.9-5.5c-0.8-1.1-2.1-3.1-1.9-5c0.1-0.7,0.5-1.7,1.6-2.6
			c2.1-1.6,6.2-2.2,10.7-1.5c5.6,0.8,11.3,3.4,10.7,7.4C193.1,147.8,188.1,152.1,182.6,152.1z M174.6,142.1c0.3,1.4,3.3,5.2,7.2,5.8
			c3.9,0.5,7.1-2.5,7.6-3.7c-0.5-0.7-2.9-2.2-7.2-2.8C178,140.8,175.3,141.6,174.6,142.1z"/>
	</g>
	<g>
		<path class="st1" d="M331.9,137.5c0.3,2-3.7,7.5-9,8.2c-5.2,0.7-9.7-3.5-10-5.6c-0.3-2,3.7-4.3,9-5S331.7,135.5,331.9,137.5
			L331.9,137.5z"/>
		<path class="st1" d="M321.8,146.9c-5.2,0-9.5-4.1-9.9-6.5c-0.4-3.1,4.6-5.5,9.9-6.2c5.2-0.7,10.7,0.2,11.2,3.3l0,0
			c0.2,1.4-0.9,3.5-2.7,5.5c-1.2,1.3-3.7,3.4-7.2,3.9C322.7,146.8,322.2,146.9,321.8,146.9z M325.2,136c-0.9,0-2,0.1-3.1,0.2
			c-5.5,0.8-8.2,2.9-8.1,3.8c0.2,1.4,4.1,5.3,8.8,4.7c2.8-0.4,4.9-2.2,6-3.3c1.6-1.7,2.2-3.2,2.1-3.7l0,0
			C330.8,137,328.8,136,325.2,136z"/>
	</g>
	<g>
		<path class="st1" d="M339.5,255c-1.2,0-2.4-0.3-3.5-1.1c-2.9-1.9-3.6-5.8-1.7-8.6c12.2-18.2,9.9-36.8,7.8-54.8
			c-0.9-7.7-1.9-15.7-1.6-23.4c0.3-7.9,1.3-14.4,2.2-20.7c1.1-7.4,2.2-14.4,1.8-22.7c-0.2-3.4,2.5-6.4,5.9-6.6
			c3.4-0.2,6.4,2.5,6.6,5.9c0.5,9.6-0.7,17.6-1.9,25.3c-0.9,5.9-1.9,12-2.1,19.2c-0.2,6.7,0.6,13.9,1.6,21.5
			c2.3,19.3,4.9,41.2-9.8,63.2C343.5,254,341.5,255,339.5,255z"/>
	</g>
	<g>
		<path class="st2" d="M0,60.2"/>
	</g>
</g>
</svg>
